PathFileType	4	(X/Y/Z)	/Users/itak/Documents/Research/Walk-IL/dataset/trc/00581_00009.trc
DataRate	CameraRate	NumFrames	NumMarkers	Units	OrigDataRate	OrigDataStartFrame	OrigNumFrames
100.000000	100.000000	4	53	mm	100.000000	0	525
Frame#	Time	RPSI			LPSI			L3			STRN			T10			C7			CLAV			RBAK			LBAK			LSHO			LUPA			LAEL			LAOL			LWTS			LWPS			LFRA			LIFD			LHPS			LHTS			RSHO			RUPA			RAEL			RAOL			RWTS			RWPS			RFRA			RIFD			RHPS			RBHD			RFHD			LBHD			LHIP			RHIP			RASI			LASI			LKNE			LTHI			LANK			LTIP			LTOE			LMT1			LMT5			LHEE			RKNE			RTHI			RANK			RTIP			RTOE			RMT1			RMT5			RHEE			RHTS			LFHD			
		X1	Y1	Z1	X2	Y2	Z2	X3	Y3	Z3	X4	Y4	Z4	X5	Y5	Z5	X6	Y6	Z6	X7	Y7	Z7	X8	Y8	Z8	X9	Y9	Z9	X10	Y10	Z10	X11	Y11	Z11	X12	Y12	Z12	X13	Y13	Z13	X14	Y14	Z14	X15	Y15	Z15	X16	Y16	Z16	X17	Y17	Z17	X18	Y18	Z18	X19	Y19	Z19	X20	Y20	Z20	X21	Y21	Z21	X22	Y22	Z22	X23	Y23	Z23	X24	Y24	Z24	X25	Y25	Z25	X26	Y26	Z26	X27	Y27	Z27	X28	Y28	Z28	X29	Y29	Z29	X30	Y30	Z30	X31	Y31	Z31	X32	Y32	Z32	X33	Y33	Z33	X34	Y34	Z34	X35	Y35	Z35	X36	Y36	Z36	X37	Y37	Z37	X38	Y38	Z38	X39	Y39	Z39	X40	Y40	Z40	X41	Y41	Z41	X42	Y42	Z42	X43	Y43	Z43	X44	Y44	Z44	X45	Y45	Z45	X46	Y46	Z46	X47	Y47	Z47	X48	Y48	Z48	X49	Y49	Z49	X50	Y50	Z50	X51	Y51	Z51	X52	Y52	Z52	X53	Y53	Z53	

1	0	-1268.2490234375	1021.431823730469	-290.3448181152344	-1202.947875976562	1024.391723632812	-406.7182006835938	-1227.04736328125	1093.90283203125	-350.3145141601562	-1029.602172851562	1300.379760742188	-247.6586456298828	-1241.131103515625	1219.255615234375	-356.6464538574219	-1233.897705078125	1494.210327148438	-334.6406555175781	-1060.981323242188	1409.816650390625	-259.5399475097656	-1318.251831054688	1358.07958984375	-287.8831787109375	-1215.784301757812	1440.892333984375	-430.8547973632812	-1095.96337890625	1477.918823242188	-460.3360290527344	-1049.250732421875	1350.971557617188	-525.5098876953125	-976.2814331054688	1139.90673828125	-508.4150085449219	-1072.984619140625	1111.18310546875	-517.1819458007812	-886.9862060546875	930.2247314453125	-376.7997741699219	-872.3032836914062	895.768798828125	-455.3116455078125	-936.8143310546875	1062.145385742188	-486.8092956542969	-844.3276977539062	775.2731323242188	-354.8779296875	-856.7800903320312	841.0658569335938	-433.2530517578125	-844.4060668945312	861.4630737304688	-369.5733337402344	-1250.910766601562	1459.248168945312	-169.6035308837891	-1291.80029296875	1390.572875976562	-117.1173477172852	-1276.749267578125	1102.276245117188	-65.54183959960938	-1314.16357421875	1079.381469726562	-111.6435546875	-1112.543334960938	900.947021484375	-40.30123519897461	-1178.429443359375	873.5535888671875	0.8198239207267761	-1264.001586914062	1048.667602539062	-52.47123718261719	-1088.346557617188	729.642578125	-33.86911773681641	-1154.878173828125	801.8712768554688	8.340983390808105	-1215.954467773438	1680.774536132812	-249.7952423095703	-1098.660400390625	1723.035766601562	-184.6257019042969	-1122.034423828125	1683.122436523438	-385.981689453125	-1036.628540039062	940.3521728515625	-467.50732421875	-1222.567626953125	933.0120849609375	-131.0049591064453	-1115.515380859375	961.0443115234375	-138.3050689697266	-988.3605346679688	960.5701293945312	-383.0069580078125	-1068.616943359375	491.1747436523438	-421.5693664550781	-1040.990356445312	656.1578369140625	-449.9541015625	-1142.422485351562	32.63844299316406	-453.7666320800781	-1124.314697265625	251.2049865722656	-456.6962280273438	-988.2996826171875	36.18225479125977	-298.7596435546875	-1070.41064453125	37.60558319091797	-304.840576171875	-1028.882690429688	34.09975814819336	-404.7014770507812	-1229.151000976562	28.62415313720703	-442.6090698242188	-1216.886596679688	491.1564025878906	-196.7146911621094	-1199.220581054688	776.0989379882812	-127.3490982055664	-1286.536376953125	35.32032775878906	-277.5352478027344	-1217.895385742188	351.6824340820312	-216.8470458984375	-1077.692016601562	36.72922515869141	-189.2161102294922	-1108.616577148438	36.97171783447266	-260.0615539550781	-1185.268188476562	37.36709213256836	-189.0632629394531	-1300.071655273438	27.0499210357666	-353.1293334960938	-1085.232666015625	811.6205444335938	-11.99736404418945	-1021.045654296875	1724.894653320312	-308.0582580566406	
2	0.01	-1268.45068359375	1021.268859863281	-290.3245239257812	-1203.139038085938	1024.230834960938	-406.7598266601562	-1227.375122070312	1093.9755859375	-350.3323669433594	-1029.775756835938	1300.259033203125	-247.5990600585938	-1241.671997070312	1219.512817382812	-356.5484008789062	-1233.771118164062	1494.389404296875	-334.3114013671875	-1060.75537109375	1409.758178710938	-259.7378845214844	-1318.370361328125	1358.396362304688	-287.6971435546875	-1215.761962890625	1441.207885742188	-430.6238403320312	-1095.916748046875	1477.999145507812	-460.0999755859375	-1049.331420898438	1351.13916015625	-525.3750610351562	-976.6032104492188	1139.931884765625	-508.4273681640625	-1073.397338867188	1111.369873046875	-517.3676147460938	-887.6726684570312	930.191650390625	-376.7588806152344	-872.8635864257812	895.6500244140625	-455.2325744628906	-937.2688598632812	1062.144287109375	-486.8284606933594	-847.03759765625	774.0386352539062	-353.8660583496094	-857.4871215820312	840.8972778320312	-433.1651306152344	-845.186279296875	861.4121704101562	-369.4574279785156	-1250.784301757812	1459.276123046875	-169.39111328125	-1291.806396484375	1390.599853515625	-116.9120407104492	-1276.984375	1102.282958984375	-65.51058959960938	-1314.44140625	1079.3916015625	-111.5988922119141	-1112.759643554688	900.9757080078125	-40.39182281494141	-1178.55517578125	873.51171875	0.599445641040802	-1264.218994140625	1048.63134765625	-52.5337028503418	-1088.395263671875	729.6895751953125	-34.09724807739258	-1154.94970703125	801.8377075195312	8.077458381652832	-1215.785278320312	1680.736694335938	-249.4201049804688	-1098.519287109375	1722.956665039062	-184.2236938476562	-1121.88623046875	1683.15185546875	-385.6239318847656	-1036.727172851562	940.3569946289062	-467.5003967285156	-1222.706787109375	932.9623413085938	-130.9669799804688	-1115.6240234375	961.1032104492188	-138.2305145263672	-988.51904296875	960.5872192382812	-382.9842529296875	-1068.61083984375	491.2689514160156	-421.4560241699219	-1040.860595703125	656.159912109375	-449.793212890625	-1142.409545898438	32.68641662597656	-453.7314147949219	-1124.318237304688	251.1812286376953	-456.6303405761719	-988.2891845703125	36.17131805419922	-298.752685546875	-1070.41015625	37.59880065917969	-304.8630981445312	-1028.888916015625	34.10725402832031	-404.6909484863281	-1229.147583007812	28.63362884521484	-442.5990600585938	-1216.841552734375	491.1740112304688	-196.685546875	-1199.180053710938	776.096435546875	-127.3105926513672	-1286.546630859375	35.33815765380859	-277.5300903320312	-1217.873413085938	351.6898498535156	-216.7738037109375	-1077.698364257812	36.72848510742188	-189.2214508056641	-1108.62060546875	36.9678840637207	-260.0578002929688	-1185.267700195312	37.36916732788086	-189.0649108886719	-1300.07763671875	27.05270767211914	-353.1309509277344	-1085.404418945312	811.6629028320312	-12.11479473114014	-1020.995849609375	1724.8759765625	-307.7763061523438	
3	0.02	-1268.704223632812	1021.056335449219	-290.308837890625	-1203.37841796875	1024.006103515625	-406.8200378417969	-1227.791137695312	1094.080810546875	-350.3477783203125	-1029.99951171875	1300.108764648438	-247.5199737548828	-1242.343994140625	1219.830810546875	-356.4173583984375	-1233.615600585938	1494.609008789062	-333.9127807617188	-1060.48486328125	1409.68994140625	-259.9564819335938	-1318.521728515625	1358.788330078125	-287.4723205566406	-1215.739990234375	1441.590576171875	-430.3392639160156	-1095.8427734375	1478.09375	-459.7954406738281	-1049.457275390625	1351.342163085938	-525.21875	-977.0691528320312	1139.942626953125	-508.4776306152344	-1073.97607421875	1111.601928710938	-517.610107421875	-888.5969848632812	930.097412109375	-376.7886047363281	-873.6536254882812	895.4684448242188	-455.2196044921875	-937.8980712890625	1062.113403320312	-486.9006042480469	-850.3937377929688	772.5045776367188	-352.8517761230469	-858.4533081054688	840.659912109375	-433.1374816894531	-846.2454223632812	861.2794189453125	-369.3917541503906	-1250.629272460938	1459.310791015625	-169.1246795654297	-1291.808349609375	1390.638671875	-116.6570510864258	-1277.298461914062	1102.296752929688	-65.46537780761719	-1314.8115234375	1079.418823242188	-111.5493927001953	-1113.067504882812	900.9971313476562	-40.52077865600586	-1178.761474609375	873.4514770507812	0.3260136544704437	-1264.511840820312	1048.5927734375	-52.60859298706055	-1088.519409179688	729.72412109375	-34.40927886962891	-1155.108520507812	801.7926025390625	7.767145156860352	-1215.571899414062	1680.70361328125	-248.9561004638672	-1098.320190429688	1722.864624023438	-183.7313842773438	-1121.686401367188	1683.196533203125	-385.1739196777344	-1036.849487304688	940.3543090820312	-467.4910888671875	-1222.86669921875	932.904541015625	-130.9276885986328	-1115.7431640625	961.1949462890625	-138.1380310058594	-988.723876953125	960.596923828125	-382.9692077636719	-1068.597778320312	491.3638610839844	-421.32080078125	-1040.69140625	656.1663818359375	-449.5853271484375	-1142.391479492188	32.74140548706055	-453.6917419433594	-1124.312133789062	251.1562805175781	-456.5523681640625	-988.2761840820312	36.15949630737305	-298.7453308105469	-1070.410522460938	37.58916473388672	-304.8991394042969	-1028.893432617188	34.11674880981445	-404.680908203125	-1229.140747070312	28.64234352111816	-442.5864868164062	-1216.765380859375	491.1932983398438	-196.646240234375	-1199.122192382812	776.0922241210938	-127.2590789794922	-1286.552001953125	35.35188674926758	-277.5260925292969	-1217.831787109375	351.6943969726562	-216.6941680908203	-1077.705322265625	36.72762298583984	-189.2279663085938	-1108.62451171875	36.9652214050293	-260.0554504394531	-1185.265502929688	37.37288665771484	-189.0687713623047	-1300.082763671875	27.05568885803223	-353.1323852539062	-1085.669555664062	811.6976928710938	-12.28220653533936	-1020.869812011719	1724.855224609375	-307.4004211425781	
4	0.03	-1268.999145507812	1020.798278808594	-290.302001953125	-1203.65625	1023.719116210938	-406.8957214355469	-1228.281127929688	1094.217407226562	-350.3565063476562	-1030.265991210938	1299.936279296875	-247.4231872558594	-1243.111694335938	1220.193603515625	-356.2554931640625	-1233.439331054688	1494.858520507812	-333.4690246582031	-1060.193969726562	1409.61767578125	-260.1634216308594	-1318.69970703125	1359.235107421875	-287.2228088378906	-1215.721923828125	1442.018188476562	-430.0148010253906	-1095.740966796875	1478.198852539062	-459.4326782226562	-1049.632934570312	1351.567749023438	-525.052978515625	-977.6876831054688	1139.928466796875	-508.5819091796875	-1074.722534179688	1111.86572265625	-517.9053344726562	-889.7562255859375	929.9172973632812	-376.9257507324219	-874.6903686523438	895.2138671875	-455.3160095214844	-938.7051391601562	1062.038818359375	-487.0476684570312	-854.0950927734375	770.840576171875	-352.0216064453125	-859.6848754882812	840.3505249023438	-433.2193603515625	-847.5828247070312	861.0352783203125	-369.4228515625	-1250.456665039062	1459.350463867188	-168.8148803710938	-1291.803955078125	1390.689208984375	-116.3658447265625	-1277.687377929688	1102.318359375	-65.40817260742188	-1315.269165039062	1079.468017578125	-111.4989929199219	-1113.470581054688	901.0003051757812	-40.69537734985352	-1179.067138671875	873.3729858398438	0.01708415150642395	-1264.878295898438	1048.557006835938	-52.69102096557617	-1088.74951171875	729.7328491210938	-34.79750061035156	-1155.381713867188	801.7349243164062	7.431233406066895	-1215.320922851562	1680.682373046875	-248.4238433837891	-1098.062866210938	1722.763916015625	-183.1728363037109	-1121.437866210938	1683.258056640625	-384.6507568359375	-1036.989379882812	940.3394775390625	-467.478759765625	-1223.0361328125	932.8424682617188	-130.8905181884766	-1115.862426757812	961.3219604492188	-138.0320892333984	-988.9678344726562	960.5947265625	-382.968017578125	-1068.57666015625	491.4512939453125	-421.1736450195312	-1040.490356445312	656.1781005859375	-449.3390808105469	-1142.369873046875	32.79612350463867	-453.6541442871094	-1124.293090820312	251.13330078125	-456.468017578125	-988.2612915039062	36.14796829223633	-298.7388305664062	-1070.411499023438	37.57748031616211	-304.9476623535156	-1028.895141601562	34.12722396850586	-404.6734924316406	-1229.129272460938	28.64835166931152	-442.5723571777344	-1216.654418945312	491.2125854492188	-196.5964202880859	-1199.049194335938	776.0863037109375	-127.1931610107422	-1286.55126953125	35.36028671264648	-277.5231323242188	-1217.765991210938	351.69384765625	-216.6153717041016	-1077.711547851562	36.72690200805664	-189.2350769042969	-1108.626953125	36.96453094482422	-260.0557250976562	-1185.261352539062	37.37821578979492	-189.0753021240234	-1300.086181640625	27.05879211425781	-353.1334533691406	-1086.0322265625	811.7171020507812	-12.5111722946167	-1020.645690917969	1724.833374023438	-306.9367980957031	
